Coordinates
version=1
nRows=5
nColumns=69
inDegrees=yes

Units are S.I. units (second, meters, Newtons, ...)
If the header above contains a line with 'inDegrees', this indicates whether rotational values are in degrees (yes) or radians (no).

endheader
time	pelvis_tilt	pelvis_list	pelvis_rotation	pelvis_tx	pelvis_ty	pelvis_tz	hip_flexion_r	hip_adduction_r	hip_rotation_r	knee_angle_r	knee_angle_r_beta	ankle_angle_r	subtalar_angle_r	mtp_angle_r	hip_flexion_l	hip_adduction_l	hip_rotation_l	knee_angle_l	knee_angle_l_beta	ankle_angle_l	subtalar_angle_l	mtp_angle_l	L5_S1_Flex_Ext	L5_S1_Lat_Bending	L5_S1_axial_rotation	L4_L5_Flex_Ext	L4_L5_Lat_Bending	L4_L5_axial_rotation	L3_L4_Flex_Ext	L3_L4_Lat_Bending	L3_L4_axial_rotation	L2_L3_Flex_Ext	L2_L3_Lat_Bending	L2_L3_axial_rotation	L1_L2_Flex_Ext	L1_L2_Lat_Bending	L1_L2_axial_rotation	L1_T12_Flex_Ext	L1_T12_Lat_Bending	L1_T12_axial_rotation	Abs_r3	Abs_r2	Abs_r1	Abs_t1	Abs_t2	neck_flexion	neck_bending	neck_rotation	sh_tx_r	sh_ty_r	sh_tz_r	sh_plane_elev_r	sh_elev_r	sh_axial_rot_r	elbow_flex_r	pro_sup_r	wrist_flex_r	wrist_dev_r	sh_tx_l	sh_ty_l	sh_tz_l	sh_plane_elev_l	sh_elev_l	sh_axial_rot_l	elbow_flex_l	pro_sup_l	wrist_flex_l	wrist_dev_l
      1.26666670	    -14.43997423	     16.22356511	    -60.57040384	     -0.03794337	      0.89895463	     -0.83092659	     38.79327146	      5.40007072	    -22.60110912	      7.89410933	      0.13777820	    -28.48445928	    -13.51419616	      0.00000000	     31.29081189	     -2.35135627	     19.12334087	     40.26182895	      0.70270148	      6.81717279	    -10.78077362	      0.00000000	     -0.06669219	     -1.02410340	     -2.23790096	     -0.12385406	     -1.36205753	     -2.37776977	     -0.10956860	     -2.49000502	     -2.37776977	     -0.07622250	     -2.49000502	     -1.95816334	     -0.06193037	     -2.08835166	     -1.81829453	     -0.03810792	     -1.58633617	     -1.67842572	     -0.47637563	    -11.58486252	    -12.44653377	      0.00000000	      0.00000000	      0.00000000	      0.00000000	      0.00000000	      0.02534041	      0.05186446	     -0.00522870	    -36.82273691	     41.68043914	    -17.64371014	    133.47299837	     89.99559364	      0.00000000	      0.00000000	      0.01536368	      0.00926570	     -0.00546212	     -0.76201521	     40.27790846	     -8.31897462	     60.48185836	     89.99559364	      0.00000000	      0.00000000
      1.28333330	    -13.03923270	     15.52373560	    -61.04964647	     -0.03029695	      0.89843301	     -0.81618084	     37.60065975	      4.89734056	    -23.02095783	     10.96593891	      0.19139174	    -26.87656194	    -16.93431287	      0.00000000	     28.32779869	     -1.98238065	     17.81225594	     39.79072506	      0.69447916	      7.38838977	    -10.43858605	      0.00000000	     -0.05757926	     -0.92303264	     -2.01341640	     -0.10693045	     -1.22763341	     -2.13925493	     -0.09459697	     -2.24426156	     -2.13925493	     -0.06580734	     -2.24426156	     -1.76173935	     -0.05346810	     -1.88224816	     -1.63590083	     -0.03290079	     -1.42977756	     -1.51006230	     -0.41128292	    -10.44152983	    -11.19801799	      0.00000000	      0.00000000	      0.00000000	      0.00000000	      0.00000000	      0.02153735	      0.04575591	     -0.00508673	    -37.46076796	     42.34449394	    -17.89728850	    131.80799182	     89.99559364	      0.00000000	      0.00000000	      0.00840827	      0.00909794	     -0.00540907	     -1.91973043	     39.58622113	     -8.88761769	     62.02569105	     89.99559364	      0.00000000	      0.00000000
      1.30000000	    -11.77558190	     14.69978501	    -61.90236520	     -0.02304856	      0.89836777	     -0.80156059	     36.29614980	      4.48176255	    -23.41848991	     13.84355061	      0.24161554	    -24.46435641	    -18.56479138	      0.00000000	     25.20206381	     -1.73996402	     16.76048828	     39.47689233	      0.68900175	      8.03510487	    -10.29953647	      0.00000000	     -0.04910684	     -0.76616902	     -1.85247478	     -0.09119631	     -1.01900479	     -1.96825445	     -0.08067763	     -1.86286335	     -1.96825445	     -0.05612421	     -1.86286335	     -1.62091543	     -0.04560061	     -1.56237186	     -1.50513576	     -0.02805965	     -1.18679581	     -1.38935608	     -0.35076525	     -8.66705715	    -10.30290898	      0.00000000	      0.00000000	      0.00000000	      0.00000000	      0.00000000	      0.02065901	      0.04131698	     -0.00467712	    -37.58869980	     43.27738101	    -18.43791911	    130.60094091	     89.99559364	      0.00000000	      0.00000000	     -0.00128072	      0.00875458	     -0.00551340	     -3.02869844	     39.50480667	     -9.13735956	     62.11855994	     89.99559364	      0.00000000	      0.00000000
      1.31666670	    -10.19408658	     13.95676239	    -63.48653977	     -0.01707258	      0.89900503	     -0.78716097	     35.08747795	      3.84469491	    -22.86548536	     16.76790369	      0.29265513	    -21.42144160	    -18.91045595	      0.00000000	     22.00992418	     -1.27178511	     15.24508454	     39.35068279	      0.68679898	      9.05282386	     -9.42250710	      0.00000000	     -0.04268575	     -0.66866923	     -1.95422451	     -0.07927170	     -0.88933008	     -2.07636355	     -0.07012842	     -1.62580237	     -2.07636355	     -0.04878554	     -1.62580237	     -1.70994645	     -0.03963799	     -1.36355030	     -1.58780742	     -0.02439064	     -1.03576864	     -1.46566839	     -0.30490004	     -7.56412008	    -10.86881048	      0.00000000	      0.00000000	      0.00000000	      0.00000000	      0.00000000	      0.01897590	      0.03695996	     -0.00480653	    -33.38960136	     43.50141884	    -20.51063101	    127.55818898	     89.99559364	      0.00000000	      0.00000000	      0.00916206	      0.01034391	     -0.00534075	    -14.07482612	     39.79649502	     -4.57989515	     67.00189389	     89.99559364	      0.00000000	      0.00000000
      1.33333330	     -8.91627401	     13.08917235	    -64.91405562	     -0.01135675	      0.90029575	     -0.77361324	     33.77319713	      3.34876661	    -22.10940421	     19.10590624	      0.33346097	    -18.52075831	    -19.10729377	      0.00000000	     19.24282531	     -0.79184646	     14.33744521	     39.69603036	      0.69282643	      9.95420531	     -9.09617883	      0.00000000	     -0.03806156	     -0.49856382	     -1.76138505	     -0.07068412	     -0.66308989	     -1.87147162	     -0.06253133	     -1.21220808	     -1.87147162	     -0.04350055	     -1.21220808	     -1.54121192	     -0.03534396	     -1.01667135	     -1.43112535	     -0.02174837	     -0.77227536	     -1.32103879	     -0.27186989	     -5.63985369	     -9.79629524	      0.00000000	      0.00000000	      0.00000000	      0.00000000	      0.00000000	      0.02210150	      0.03419681	     -0.00454939	    -33.56557079	     44.68812007	    -21.13812716	    125.98404601	     89.99559364	      0.00000000	      0.00000000	      0.00546188	      0.01231259	     -0.00548466	    -15.33254283	     40.79252405	     -5.05287230	     66.20083040	     89.99559364	      0.00000000	      0.00000000
